<?xml version="1.0" encoding="UTF-8"?>
<svg width="24px" height="24px" viewBox="0 0 24 24" version="1.1" xmlns="http://www.w3.org/2000/svg">
    <g stroke="none" stroke-width="1" fill="none" fill-rule="evenodd">
        <rect fill="#003087" x="0" y="0" width="24" height="24" rx="6"/>
        <path d="M20.924 7.625c0.244 1.125-0.049 2.122-0.941 3.148-0.894 1.028-2.063 1.672-3.508 1.932-0.225 0.841-0.602 1.841-1.133 3.001-0.531 1.159-1.123 2.389-1.727 3.693l-0.602 1.288c-0.086 0.19-0.218 0.333-0.394 0.429-0.176 0.095-0.364 0.143-0.565 0.143h-3.924l0.394-2.861h2.789l2.789-6.553h-3.183l-0.394 2.861h-2.789l0.788-5.722h4.366c0.705 0 1.293 0.238 1.766 0.715 0.473 0.476 0.71 1.048 0.71 1.716 0 0.19-0.016 0.381-0.049 0.572-0.033 0.19-0.082 0.381-0.148 0.572h0.394c1.445 0 2.614-0.524 3.508-1.574 0.894-1.051 1.187-2.122 0.879-3.214l0.394-0.286c0.244 0.095 0.473 0.238 0.686 0.429 0.214 0.19 0.364 0.429 0.451 0.715z" fill="#FFFFFF"/>
    </g>
</svg> 